<svg xmlns="http://www.w3.org/2000/svg" viewBox="0 0 1920 800" preserveAspectRatio="xMidYMid slice">
	<defs>
		<linearGradient id="sky" x1="0" y1="0" x2="0" y2="1">
			<stop offset="0" stop-color="#6fb8d9"/>
			<stop offset="1" stop-color="#bfe0ee"/>
		</linearGradient>
		<linearGradient id="sea" x1="0" y1="0" x2="0" y2="1">
			<stop offset="0" stop-color="#2e7ea8"/>
			<stop offset="1" stop-color="#1f5f82"/>
		</linearGradient>
	</defs>
	<rect width="1920" height="800" fill="url(#sky)"/>
	<rect y="520" width="1920" height="280" fill="url(#sea)"/>
	<polygon points="0,560 250,380 520,560" fill="#4f7d4f"/>
	<polygon points="150,560 420,340 700,560" fill="#5c8a52"/>
	<g fill="#e7e2d8">
		<rect x="600" y="430" width="60" height="130"/>
		<rect x="680" y="380" width="55" height="180"/>
		<rect x="750" y="450" width="50" height="110"/>
		<rect x="820" y="400" width="60" height="160"/>
		<rect x="900" y="440" width="45" height="120"/>
		<rect x="970" y="410" width="55" height="150"/>
		<rect x="1050" y="460" width="50" height="100"/>
		<rect x="1120" y="390" width="65" height="170"/>
		<rect x="1210" y="430" width="55" height="130"/>
		<rect x="1290" y="405" width="60" height="155"/>
		<rect x="1370" y="450" width="45" height="110"/>
		<rect x="1440" y="420" width="55" height="140"/>
		<rect x="1520" y="460" width="50" height="100"/>
		<rect x="1600" y="400" width="60" height="160"/>
		<rect x="1690" y="440" width="50" height="120"/>
	</g>
	<text x="960" y="780" text-anchor="middle" font-family="Arial, sans-serif" font-size="20" fill="#ffffff" opacity="0.55">תמונת נוף לדוגמה — יש להחליף בתמונת מצלמה/רחפן אמיתית של העיר דרך התאמה אישית (Customizer)</text>
</svg>
